{"title":"Bad.Teacher.2011.BRRip.720p.x264.Feel-Free","uid":6716904,"size":2446223876,"categoryP":"video","categoryS":"hd___movies","magnet":"?xt=urn:btih:f8aca8b5ceb4d0b9c991f1b024f2796ba58ff83c&amp;dn=Bad.Teacher.2011.BRRip.720p.x264.Feel-Free&amp;tr=udp%3A%2F%2Ftracker.openbittorrent.com%3A80&amp;tr=udp%3A%2F%2Fopen.demonii.com%3A1337&amp;tr=udp%3A%2F%2Ftracker.coppersurfer.tk%3A6969&amp;tr=udp%3A%2F%2Fexodus.desync.com%3A6969","seeders":0,"leechers":0,"uploader":"midge218","files":-1,"time":1317593917,"description":"Genre:Comedy\nLanguage:English\nIMDb:http://www.imdb.com/title/tt1284575/\nSource:BluRay-CHD Thanks!\n\nFormat                           : MPEG-4\nFormat profile                   : Base Media\nCodec ID                         : isom\nFile size                        : 2.27 GiB\nDuration                         : 1h 37mn\nOverall bit rate                 : 3 331 Kbps\n\nVideo\nID                               : 1\nFormat                           : AVC\nFormat/Info                      : Advanced Video Codec\nFormat profile                   : &lt;a class=&quot;__cf_email__&quot; href=&quot;/cdn-cgi/l/email-protection&quot; data-cfemail=&quot;89c1e0eee1c9c5bda7b8&quot;&gt;[email&amp;#160;protected]&lt;/a&gt;&lt;script data-cfhash='f9e31' type=&quot;text/javascript&quot;&gt;\n/* &lt;![CDATA[ */!function(){try{var t=&quot;currentScript&quot;in document?document.currentScript:function(){for(var t=document.getElementsByTagName(&quot;script&quot;),e=t.length;e--;)if(t[e].getAttribute(&quot;data-cfhash&quot;))return t[e]}();if(t&amp;&amp;t.previousSibling){var e,r,n,i,c=t.previousSibling,a=c.getAttribute(&quot;data-cfemail&quot;);if(a){for(e=&quot;&quot;,r=parseInt(a.substr(0,2),16),n=2;a.length-n;n+=2)i=parseInt(a.substr(n,2),16)^r,e+=String.fromCharCode(i);e=document.createTextNode(e),c.parentNode.replaceChild(e,c)}t.parentNode.removeChild(t);}}catch(u){}}()/* ]]&gt; */&lt;/script&gt;\nFormat settings, CABAC           : Yes\nFormat settings, ReFrames        : 3 frames\nCodec ID                         : avc1\nCodec ID/Info                    : Advanced Video Coding\nDuration                         : 1h 37mn\nBit rate mode                    : Variable\nBit rate                         : 3 000 Kbps\nMaximum bit rate                 : 21.4 Mbps\nWidth                            : 1 280 pixels\nHeight                           : 688 pixels\nDisplay aspect ratio             : 1.860\nFrame rate mode                  : Constant\nFrame rate                       : 23.976 fps\nColor space                      : YUV\nChroma subsampling               : 4:2:0\nBit depth                        : 8 bits\nScan type                        : Progressive\nBits/(Pixel*Frame)               : 0.142\nStream size                      : 2.01 GiB (89%)\nWriting library                  : x264\n\nAudio\nID                               : 2\nFormat                           : AAC\nFormat/Info                      : Advanced Audio Codec\nFormat version                   : Version 4\nFormat profile                   : LC\nFormat settings, SBR             : No\nCodec ID                         : 40\nDuration                         : 1h 37mn\nBit rate mode                    : Variable\nBit rate                         : 373 Kbps\nMaximum bit rate                 : 506 Kbps\nChannel(s)                       : 6 channels\nChannel positions                : Front: L C R, Side: L R, LFE\nSampling rate                    : 48.0 KHz\nStream size                      : 260 MiB (11%)\n\n     \nPlot:\n  A comedy centered around a foul-mouthed, junior high teacher who, after being dumped by her sugar daddy, begins to woo a colleague -- a move that pits her against a well-loved teacher\n\n\n &lt;a href=&quot;\nhttp://www.pix2links.com/images/36883429044561692948.png&quot; rel=&quot;nofollow&quot; target=&quot;_NEW&quot;&gt;\nhttp://www.pix2links.com/images/36883429044561692948.png&lt;/a&gt; &lt;a href=&quot;\nhttp://www.pix2links.com/images/07338355460122012309.png&quot; rel=&quot;nofollow&quot; target=&quot;_NEW&quot;&gt;\nhttp://www.pix2links.com/images/07338355460122012309.png&lt;/a&gt; &lt;a href=&quot;\nhttp://www.pix2links.com/images/38446345827422922247.png&quot; rel=&quot;nofollow&quot; target=&quot;_NEW&quot;&gt;\nhttp://www.pix2links.com/images/38446345827422922247.png&lt;/a&gt; &lt;a href=&quot;\nhttp://www.pix2links.com/images/09596616509660498902.png&quot; rel=&quot;nofollow&quot; target=&quot;_NEW&quot;&gt;\nhttp://www.pix2links.com/images/09596616509660498902.png&lt;/a&gt; &lt;a href=&quot;\nhttp://www.pix2links.com/images/14934549565974980826.png&quot; rel=&quot;nofollow&quot; target=&quot;_NEW&quot;&gt;\nhttp://www.pix2links.com/images/14934549565974980826.png&lt;/a&gt;\n\n\nGreets:\n\nINK,CRYS,IMAGINE,LKRG,FXG,3Li,FLAWL3SS,TA,iLLUSiON,ViSiON,DTRG SAFCuk009,LU,TheFalcon007,MYSTiC,PrisM,Noir,WBZ,LAP,Rx,Kingdom,SAFCuk009+Fabreezy,HDLiTE,TWiZTED,ETRG.ELEKTRI4KA,MAGNAT,CM8\n                And to all the other p2p grps past and present \n \n\n\n\nMake sure its a real Feel-Free release @\n\nThanks to all who promotes release Feel-Free !!!","torrent":{"xt":"urn:btih:f8aca8b5ceb4d0b9c991f1b024f2796ba58ff83c","amp;dn":"Bad.Teacher.2011.BRRip.720p.x264.Feel-Free","amp;tr":["udp%3A%2F%2Ftracker.openbittorrent.com%3A80","udp%3A%2F%2Fopen.demonii.com%3A1337","udp%3A%2F%2Ftracker.coppersurfer.tk%3A6969","udp%3A%2F%2Fexodus.desync.com%3A6969"],"infoHash":"f8aca8b5ceb4d0b9c991f1b024f2796ba58ff83c","infoHashBuffer":{"type":"Buffer","data":[248,172,168,181,206,180,208,185,201,145,241,176,36,242,121,107,165,143,248,60]},"announce":[],"urlList":[]}}